# xmcd
#
# Track frame offsets: 
# 182
# 19400
# 35315
# 53185
# 75835
# 97595
# 123282
# 142795
# 148632
# 166667
#
# Disc length: 2501 seconds
# Submitted via: tkcNetwork 1.0
# Revision: 0
# Processed by: cddbd v1.5.2PL0 Copyright (c) Steve Scherf et al.
#
DISCID=6a09c30a
DTITLE=Sting - The Dream Of The Blue Turtles
DYEAR=1985
DGENRE=Rock
TTITLE0=If You Love Somebody Set Them Free
TTITLE1=Love Is The Seventh Wave
TTITLE2=Russians
TTITLE3=Children's Crusade
TTITLE4=Shadows In The Rain
TTITLE5=We Work The Black Seam
TTITLE6=Consider Me Gone
TTITLE7=The Dream Of The Blue Turtles
TTITLE8=Moon Over Bourbon Street
TTITLE9=Fortress Around Your Heart
EXTD=
EXTT0=
EXTT1=
EXTT2=
EXTT3=
EXTT4=
EXTT5=
EXTT6=
EXTT7=
EXTT8=
EXTT9=
PLAYORDER=
